<?xml version="1.0" encoding="utf-8"?>
<!-- Generator: Adobe Illustrator 24.1.1, SVG Export Plug-In . SVG Version: 6.00 Build 0)  -->
<svg width="20" height="21" version="1.1" id="Layer_1" xmlns="http://www.w3.org/2000/svg" xmlns:xlink="http://www.w3.org/1999/xlink" x="0px" y="0px"
	viewBox="0 0 512 512" style="enable-background:new 0 0 512 512;" xml:space="preserve">
<g>
	<path d="M231.5,49.1h-162C31.1,49.1,0,80.2,0,118.5v324C0,480.9,31.1,512,69.4,512h324c38.4,0,69.4-31.1,69.4-69.4v-162
		c0-12.8-10.4-23.1-23.1-23.1c-12.8,0-23.1,10.4-23.1,23.1l0,162c0,12.8-10.4,23.1-23.1,23.1h-324c-12.8,0-23.1-10.4-23.1-23.1v-324
		c0-12.8,10.4-23.1,23.1-23.1h162c12.8,0,23.1-10.4,23.1-23.1C254.6,59.5,244.2,49.1,231.5,49.1L231.5,49.1z"/>
	<path d="M405,37.5l16.4,16.4c5.1-5.1,11.6-7.6,18.3-7.6c6.7,0,13.2,2.5,18.4,7.6l0,0c5.1,5.1,7.6,11.6,7.6,18.4
		c0,6.7-2.5,13.2-7.6,18.3L242.8,305.9l-48.9,12.2l12.2-48.9L421.4,53.9L405,37.5l-16.4-16.4L168.8,241c-2.9,2.9-5.1,6.7-6.1,10.8
		l-23.1,92.6c-2,7.9,0.3,16.2,6.1,22c5.7,5.7,14.1,8.1,22,6.1l92.6-23.1c4-1,7.8-3.1,10.8-6.1l219.9-219.9
		c14.1-14,21.2-32.7,21.2-51.1c0-18.4-7.1-37-21.1-51.1l0,0C476.8,7.1,458.2,0,439.8,0c-18.4,0-37,7.1-51.1,21.2l0,0L405,37.5z"/>
</g>
</svg>
